<svg xmlns="http://www.w3.org/2000/svg" viewBox="0 0 32 32"><path d="M27.59 22.19 26 21V5.3A3.3 3.3 0 0 0 22.7 2H10.3A3.3 3.3 0 0 0 7 5.3V11H5a1 1 0 0 0-1 1v15.07A2.94 2.94 0 0 0 6.93 30h18.14A2.94 2.94 0 0 0 28 27.07V23a1 1 0 0 0-.41-.81zM9 5.3A1.3 1.3 0 0 1 10.3 4h12.4A1.3 1.3 0 0 1 24 5.3v14.26l-11.41-8.37A1 1 0 0 0 12 11H9zm17 21.77a.93.93 0 0 1-.93.93H6.93a.93.93 0 0 1-.93-.93V13h5.67L26 23.51zM12 8a1 1 0 0 1 1-1h7a1 1 0 0 1 0 2h-7a1 1 0 0 1-1-1zm9 3a1 1 0 0 1-1 1h-3a1 1 0 0 1 0-2h3a1 1 0 0 1 1 1z"/></svg>